<svg width="20" height="20" viewBox="0 0 20 20" fill="none" xmlns="http://www.w3.org/2000/svg">
<path d="M5.97661 16.9739C3.87964 15.7451 2.08874 12.7786 1.16309 10.1765C0.791294 9.04779 0.66396 7.83762 0.184663 6.75248C-0.31673 5.96434 0.270583 5.10277 1.1339 4.85224C1.51826 4.77847 2.19409 4.41593 1.37829 4.67505C0.646904 5.21166 0.576122 4.18796 1.32611 4.12314C1.83793 4.05511 2.02635 3.63611 1.85132 3.25891C1.3019 2.90063 3.18359 2.50687 2.2368 1.97226C1.2505 0.90815 3.61642 0.703307 3.03271 1.9118C2.89299 2.84109 4.68591 1.74148 4.26991 2.81461C4.69273 3.32996 5.85326 2.9319 5.82447 3.65489C6.4404 3.69723 6.6518 4.21548 7.23 4.25527C7.82925 4.52588 8.91559 4.73913 9.1195 5.41442C8.52498 5.8851 7.14828 4.44217 7.08214 5.74508C7.33302 10.3409 7.57071 11.9255 9.78993 14.3332C11.2848 16.0245 13.3389 16.8222 15.0729 17.1061C15.4465 16.8204 16.1059 15.7583 16.6886 16.2061C16.7162 16.7094 15.5321 17.2582 16.6329 17.2025C17.2793 17.0075 17.7276 17.7024 18.2599 17.0756C18.7503 17.6565 20.2982 16.7045 19.9493 17.8918C19.4774 18.1962 18.7893 18.0123 18.3167 18.4311C17.5375 18.0419 16.9171 18.7793 16.0545 18.6861C12.729 19.2681 8.39538 18.7431 5.97661 16.9739ZM9.88525 18.4122C11.335 18.6139 12.8322 18.924 14.2871 18.6411C13.6286 18.3437 12.9479 18.7569 12.2918 18.4285C11.505 18.5978 10.6607 18.3853 9.8608 18.2808C8.9512 17.8756 7.96958 17.597 7.11777 17.0711C6.05341 16.6823 7.66825 17.5696 7.95569 17.6415C8.62105 18.0192 7.224 17.4479 7.02705 17.2909C6.46976 16.9783 6.38464 17.0511 6.95776 17.3686C7.85143 17.9223 8.97144 18.2976 9.88525 18.4122ZM5.73569 16.4357C6.54369 16.735 5.73213 15.8675 5.36187 15.9179C5.19783 15.6333 4.73514 15.4535 5.06152 15.3006C4.47442 15.5045 4.4465 14.5256 4.17054 14.6654C3.54943 14.4693 3.9288 13.7745 3.18895 13.3479C3.12142 12.8983 2.45388 12.5084 2.24097 11.8303C2.14693 11.4831 1.4868 10.4861 1.89232 11.4139C2.2376 12.3072 2.8451 13.0721 3.35065 13.8362C3.74321 14.5637 4.20674 15.324 4.92168 15.7778C5.16267 16.009 5.39536 16.3632 5.73569 16.4357ZM6.77626 15.0277C6.33416 14.7921 5.37175 14.6702 6.05091 15.2092C6.48687 15.3854 7.59802 15.4709 6.77626 15.0277ZM7.51723 15.9646C8.46673 16.2332 6.7188 15.3642 7.28297 15.8658L7.51723 15.9646ZM7.52529 15.4615C8.21506 15.5504 6.70457 14.9923 7.37395 15.4116L7.52529 15.4615ZM9.92255 16.9355C10.5665 16.5505 10.3542 17.8371 11.0151 17.0442C11.667 16.5682 10.4521 17.6327 11.2556 17.1291C11.8366 16.7405 12.6948 17.3133 13.237 17.5002C13.6269 17.4811 14.0059 17.8373 14.4056 17.6206C15.1751 17.4133 12.901 17.3132 13.4971 16.9455C12.7931 17.1504 12.2729 16.7012 11.9265 16.2503C11.1368 16.0679 10.2237 15.6642 9.82954 14.9653C9.66885 14.7029 10.0617 15.0023 9.69082 14.5733C9.21495 14.1501 8.97733 13.6696 8.65788 13.1551C8.27626 12.9515 8.2318 12.3523 8.19322 13.135C8.19624 12.641 7.73246 12.3085 7.61926 12.4467C7.61723 11.971 8.11559 12.2095 7.76672 11.8575C7.69163 11.3644 7.44439 10.8505 7.37007 10.2938C7.25461 10.0254 7.35381 9.45067 6.97599 10.0582C6.83834 10.7002 6.9303 9.26918 7.14436 9.74109C7.42533 9.25955 7.04349 9.31618 7.02785 9.38305C7.21087 8.97676 7.14369 8.40045 6.9801 8.62031C7.07762 8.18969 7.13417 7.0355 6.83413 7.24004C7.01601 6.78974 7.17905 5.17955 6.38952 5.79346C6.06954 5.79795 5.51543 5.90961 5.2535 6.03988C6.07475 6.49257 5.17089 6.20336 4.83659 6.13141C4.79303 6.55029 4.46191 6.36913 4.04823 6.37323C4.70896 6.45498 3.72648 7.049 3.34743 6.81826C2.85516 7.05353 3.77228 7.64082 3.35731 7.8224C3.40831 8.09616 2.60315 7.72354 2.66638 8.35575C2.18848 8.15471 2.60058 9.1057 2.83967 8.78407C3.65249 9.00405 3.41188 9.50559 3.43258 9.98201C3.30014 10.2596 2.77872 9.32948 3.31645 9.37256C2.89222 8.68342 2.84718 9.12346 2.49467 9.44361C2.41265 9.46686 3.39385 9.89912 2.7781 10.1129C3.31984 10.1965 3.33525 10.6705 3.44553 10.9705C3.77115 11.3097 3.7045 10.596 4.09411 11.0036C3.84756 10.6405 2.7882 9.98053 3.64113 10.1922C3.63657 9.82675 3.48687 9.53206 3.74818 9.53921C4.00696 9.07057 3.47716 10.6947 4.06046 10.0991C4.22193 10.0286 4.26192 9.62985 4.55215 10.1367C4.97369 10.5514 4.70441 10.8519 4.10978 10.4722C4.21616 10.8331 4.90525 10.9621 4.77575 11.5265C4.91303 12.0228 5.1051 11.84 5.27251 11.8113C5.40384 12.2936 5.47842 11.939 5.48465 11.7095C6.08596 11.8382 5.94512 12.1936 6.13326 12.442C6.54762 12.629 5.54018 11.1742 6.25156 12.0045C7 12.6803 6.5363 12.9132 5.86059 12.8541C6.42263 12.9001 6.43443 13.4007 6.95452 13.4074C7.40657 13.6405 7.76284 14.515 6.92704 14.1462C6.45573 13.8538 5.61617 13.5714 6.45405 14.0686C6.6524 14.1941 7.84255 14.6413 8.58891 15.0912C9.00214 15.3737 9.35382 15.9092 9.55628 15.9957C9.10735 16.2101 8.20338 15.8245 8.87463 15.7063C8.45596 15.63 7.99958 15.4153 8.38607 15.9399C8.71839 16.2438 9.59419 16.1945 9.74963 16.2268C9.61787 16.5171 9.39174 16.5402 9.75503 16.5627C9.34974 16.7787 9.88499 16.8121 9.92255 16.9355ZM9.04998 14.2745C8.78343 13.8542 8.84719 14.3372 9.09377 14.5951C9.48786 15.0638 9.18667 14.3294 9.04998 14.2745ZM7.57845 12.1003C7.57845 12.1003 7.64416 11.657 7.44145 11.6079C7.23874 11.5589 7.3504 11.6405 7.51261 11.9915C7.5513 12.0752 7.57519 12.1042 7.57486 12.1023M5.35956 10.4198C5.1582 9.96883 5.45538 10.2137 5.4121 10.0214C5.31917 9.82804 4.41571 8.80125 4.82724 9.57642C5.19964 10.5012 4.59292 9.46034 4.52963 9.14527C4.45967 9.33873 4.67698 9.97244 4.80835 10.1884C5.14278 10.7034 4.99235 9.90636 5.35956 10.4198ZM3.50947 8.64153C2.98658 8.20169 3.67067 8.85834 3.45833 8.85006C2.90727 8.44761 3.13252 8.73272 3.44377 9.04202C3.78098 9.54306 4.05931 8.74179 3.50947 8.64153ZM3.77792 8.71715C4.76708 8.98893 2.72525 7.76262 3.63009 8.56786L3.77792 8.71715ZM6.51527 9.88628C6.23135 9.89206 6.63302 9.26805 6.25237 9.39119C6.11884 8.42136 5.83104 9.83939 6.2226 10.0742C6.3435 10.4215 6.47052 10.28 6.51527 9.88628ZM4.1799 8.50668C5.497 9.11453 3.22629 7.50124 3.80759 8.30326C3.87668 8.45783 4.04228 8.47068 4.1799 8.50668ZM4.33086 8.19159C5.3284 8.60393 4.24213 7.92327 3.89664 7.99717C3.98373 8.12464 4.22002 8.06889 4.33086 8.19159ZM4.46443 7.81834C4.78825 7.75366 4.42148 7.64983 4.22797 7.49607C3.78013 6.82331 4.29458 7.55039 4.15382 7.75688C4.34021 7.94008 4.97372 8.26762 4.46443 7.81834ZM6.75536 6.77455C6.62311 7.47343 6.48823 7.18194 6.6778 6.66088C6.63245 5.99216 6.22604 7.07042 6.40565 7.38692C6.7026 7.85993 6.99957 6.22452 6.75536 6.77455ZM7.15022 15.0955C7.66456 15.2275 7.66193 15.0155 7.19707 14.9525C6.94704 14.7199 6.1581 14.4732 6.86424 14.9236C6.91101 15.0421 7.05879 15.0393 7.15022 15.0955ZM5.32408 13.8826C5.60743 14.0939 6.39138 14.4814 5.72774 13.963C5.95149 13.703 5.29947 13.5647 5.51576 13.3908C4.96563 13.0541 5.08178 13.0841 5.4672 13.0947C4.80604 12.7992 5.56264 12.8213 5.52701 12.6698C5.27207 12.6195 4.26073 12.2203 4.8557 12.7026C4.25087 12.3942 4.71157 12.8175 4.52876 12.7728C3.91029 12.6041 5.07955 13.2438 4.43053 13.085C4.78535 13.3662 5.38558 13.8052 4.58054 13.3826C4.47447 13.5353 5.15664 13.7667 5.32408 13.8826ZM11.7504 17.6513C12.0217 17.3884 11.7615 18.07 12.2 17.587C12.2047 17.2411 12.1865 17.0368 11.6961 17.457C11.561 17.5319 11.5006 17.8506 11.7504 17.6513ZM7.30784 14.799C7.60962 15.067 8.69387 14.9957 7.67437 14.832C7.52338 14.6087 6.71558 14.6625 7.30784 14.799ZM2.33722 11.4601C1.89884 10.8346 2.06471 10.5535 1.64197 10.0428C1.56194 9.65224 0.916744 8.76602 1.30826 9.7049C1.66687 10.254 1.77343 11.1042 2.33722 11.4601ZM15.3256 17.6332C15.7521 17.5468 16.724 17.8503 16.8811 17.5202C16.3632 17.5076 15.0892 17.1547 15.0289 17.6044L15.3256 17.6332ZM0.802154 6.85566C0.724421 6.41005 0.630422 5.62788 1.37394 5.89221C0.381468 6.08926 2.06083 7.12575 1.84876 6.3074C2.26607 6.32783 2.66512 6.06077 2.44612 6.46605C3.26834 6.37525 3.83837 5.66226 4.63259 5.76217C5.25124 5.6803 5.92765 5.61821 6.59433 5.36918C7.14247 5.32969 7.67012 4.73954 7.36967 4.38975C6.62217 4.3265 5.8397 4.42003 5.01351 4.58425C4.09798 4.77457 3.26637 5.13618 2.34263 5.29139C1.44224 5.41234 2.52373 5.62464 2.26583 5.67194C1.79599 5.83496 2.82614 5.94489 2.20492 6.11674C1.82126 6.04379 1.42192 5.91197 1.5858 5.50767C0.723303 5.61959 -0.0345826 5.97755 0.646841 6.85525L0.802154 6.85566ZM3.10728 5.89614C3.85924 6.41022 2.97805 5.05221 2.77582 5.79719C2.86975 5.77409 3.01746 5.82892 3.10728 5.89614ZM3.32131 5.55168C4.03415 5.62336 3.21212 5.09908 3.18577 5.42827L3.32131 5.55168ZM4.51597 5.1151C5.56814 4.91482 4.13068 4.78082 3.82241 5.15121C4.01776 5.24029 4.23394 4.90277 4.51597 5.1151ZM6.32067 4.75666C6.98581 4.65451 6.42523 4.3492 6.23062 4.85913C6.30117 5.01991 6.33512 4.81092 6.32067 4.75666ZM2.74272 7.4739C3.11867 7.44808 3.33091 7.05921 2.67002 7.08156C1.64574 6.97552 3.57371 7.43228 2.53862 7.30168C2.39953 7.39378 2.73464 7.49939 2.74272 7.4739ZM2.21629 4.50429C2.88724 4.27604 3.73424 4.08217 4.11186 4.63264C3.82782 4.2319 3.99143 3.84662 4.29595 4.41398C4.72654 4.98802 4.88106 4.26649 4.66204 3.96034C4.87041 4.28991 5.644 5.00752 4.87573 3.98541C5.3848 3.37304 3.8564 4.06559 3.50901 4.05862C3.34186 4.13364 1.78337 4.45608 2.21629 4.50429ZM2.6095 3.75122C2.99215 3.46241 3.9329 3.92301 3.32923 3.46419C3.27021 3.41206 2.00718 3.81212 2.6095 3.75122ZM4.00452 3.80881C4.45235 3.82024 3.81135 3.20719 4.345 3.48498C4.25736 3.19866 3.72368 3.14506 3.46277 3.03067C3.3152 3.29244 3.76315 3.81233 4.00452 3.80881ZM2.35967 1.84592C1.85152 1.18258 3.31531 1.95743 2.79903 1.26289C2.3645 0.916865 1.94693 1.65228 2.35967 1.84592ZM8.88095 5.35848C9.11402 4.94531 7.91872 4.80156 8.72392 5.21204C8.79806 5.23682 8.78128 5.38705 8.88095 5.35848Z" fill="black"/>
</svg>
