<svg width="16" height="16" viewBox="0 0 16 16" fill="none" xmlns="http://www.w3.org/2000/svg">
<path d="M7.99971 3.53402e-07C6.09518 -0.000565477 4.25292 0.678347 2.8042 1.91466C1.35548 3.15097 0.395356 4.86357 0.0964639 6.7445C-0.202428 8.62543 0.179524 10.5513 1.17364 12.1758C2.16776 13.8003 3.70882 15.0168 5.51971 15.6067H5.71304C5.80737 15.6125 5.90185 15.5983 5.99024 15.5648C6.07863 15.5314 6.1589 15.4795 6.22573 15.4127C6.29255 15.3459 6.34441 15.2656 6.37785 15.1772C6.41129 15.0888 6.42556 14.9943 6.41971 14.9V14.76C6.41971 14.6467 6.41971 14.4933 6.41971 14.0333C6.41317 13.9897 6.39801 13.9477 6.37512 13.91C6.35223 13.8722 6.32207 13.8393 6.28638 13.8133C6.24765 13.782 6.2024 13.7598 6.15394 13.7482C6.10549 13.7367 6.05506 13.7362 6.00638 13.7467C4.21971 14.1333 3.83971 13.0133 3.81304 12.94C3.58932 12.3474 3.18906 11.8378 2.66638 11.48C2.63506 11.4529 2.60162 11.4284 2.56638 11.4067C2.64385 11.365 2.73246 11.3486 2.81971 11.36C2.98727 11.3833 3.14594 11.4496 3.28029 11.5524C3.41464 11.6552 3.52009 11.791 3.58638 11.9467C3.84428 12.3957 4.2663 12.7272 4.76365 12.8715C5.261 13.0157 5.79491 12.9614 6.25304 12.72C6.30221 12.6985 6.34545 12.6655 6.37911 12.6237C6.41277 12.5819 6.43585 12.5326 6.44638 12.48C6.4719 12.1716 6.60389 11.8817 6.81971 11.66C6.86762 11.6175 6.90226 11.562 6.91946 11.5003C6.93667 11.4385 6.93572 11.3732 6.91673 11.312C6.89773 11.2508 6.8615 11.1963 6.81237 11.1552C6.76324 11.1141 6.70329 11.0879 6.63971 11.08C5.05971 10.9 3.44638 10.3467 3.44638 7.62C3.43306 6.93525 3.68371 6.27163 4.14638 5.76667C4.18899 5.7196 4.21727 5.66134 4.2279 5.59875C4.23853 5.53616 4.23106 5.47183 4.20638 5.41333C4.0211 4.89569 4.02346 4.32942 4.21304 3.81333C4.82893 3.92251 5.407 4.18631 5.89304 4.58C5.9332 4.60834 5.97923 4.62726 6.02771 4.63534C6.07619 4.64342 6.12587 4.64045 6.17304 4.62667C6.76857 4.46512 7.38267 4.3822 7.99971 4.38C8.61906 4.38052 9.23558 4.46347 9.83304 4.62667C9.87924 4.63941 9.92767 4.64184 9.97491 4.63377C10.0221 4.62571 10.067 4.60735 10.1064 4.58C10.5932 4.18755 11.1709 3.9239 11.7864 3.81333C11.9679 4.32665 11.9679 4.88668 11.7864 5.4C11.7617 5.45849 11.7542 5.52282 11.7648 5.58542C11.7755 5.64801 11.8038 5.70627 11.8464 5.75333C12.3043 6.25325 12.5546 6.90879 12.5464 7.58667C12.5464 10.3133 10.9264 10.86 9.33971 11.04C9.27463 11.0468 9.21299 11.0726 9.16246 11.1141C9.11193 11.1557 9.07476 11.2112 9.05556 11.2738C9.03637 11.3363 9.03601 11.4031 9.05453 11.4659C9.07305 11.5286 9.10963 11.5846 9.15971 11.6267C9.30738 11.7791 9.42022 11.9617 9.49043 12.162C9.56064 12.3623 9.58655 12.5754 9.56638 12.7867V14.9067C9.56308 15.0109 9.58288 15.1146 9.62438 15.2102C9.66587 15.3059 9.72802 15.3912 9.80638 15.46C9.90616 15.5347 10.022 15.5851 10.1447 15.6071C10.2674 15.629 10.3935 15.6221 10.513 15.5867C12.3118 14.9849 13.8382 13.7636 14.8199 12.1407C15.8017 10.5179 16.1749 8.59896 15.8729 6.72642C15.571 4.85388 14.6135 3.14954 13.1715 1.9175C11.7294 0.685456 9.89643 0.00587024 7.99971 3.53402e-07Z" fill="#0F0518"/>
</svg>
