<svg width="29" height="36" viewBox="0 0 29 36" fill="none" xmlns="http://www.w3.org/2000/svg">
<g clip-path="url(#clip0_2206_265)">
<path d="M8.90773 13.949C8.90773 13.9827 8.90773 14.0163 8.90773 14.05C8.90773 15.2362 8.16236 15.7537 7.24593 15.2068C6.32949 14.6599 5.58413 13.2549 5.58413 12.0687C5.58413 12.035 5.58413 12.0014 5.58413 11.9677L0 8.63611V27.3554L14.5 35.9999V17.2806L8.90773 13.949Z" fill="#7F7B87"/>
<path d="M16.1577 9.62878C16.1577 9.66243 16.1577 9.69608 16.1577 9.72974C16.1577 10.916 15.4124 11.4334 14.4959 10.8865C13.5795 10.3397 12.8341 8.93469 12.8341 7.74844C12.8341 7.71478 12.8341 7.68113 12.8341 7.64748L7.25 4.32007V11.017L16.1292 16.313V28.3355L21.75 31.6881V12.9688L16.1577 9.62878Z" fill="#7F7B87"/>
<path d="M23.4077 5.31292C23.4077 5.34657 23.4077 5.38022 23.4077 5.41388C23.4077 6.60013 22.6624 7.11754 21.7459 6.57069C20.8295 6.02383 20.0841 4.61883 20.0841 3.43257C20.0841 3.39892 20.0841 3.36527 20.0841 3.33162L14.5 0V6.69688L23.3792 11.993V24.0154L29 27.368V8.64874L23.4077 5.31292Z" fill="#7F7B87"/>
</g>
<defs>
<clipPath id="clip0_2206_265">
<rect width="29" height="36" fill="white"/>
</clipPath>
</defs>
</svg>
